<?xml version="1.0" encoding="utf-8"?>
<!-- Generator: Adobe Illustrator 20.0.0, SVG Export Plug-In . SVG Version: 6.00 Build 0)  -->
<svg version="1.1" id="Camada_1" xmlns="http://www.w3.org/2000/svg" xmlns:xlink="http://www.w3.org/1999/xlink" x="0px" y="0px"
	 viewBox="0 0 259.3 258" style="enable-background:new 0 0 259.3 258;" xml:space="preserve">
<style type="text/css">
	.st0{fill:#EC423C;}
</style>
<path class="st0" d="M118.4,192.8c1.6,1.6,3.3,3.1,5.4,4.2c0.4-4.7-0.7-8-2.9-10.3C120.3,189,119.2,190.8,118.4,192.8z"/>
<path class="st0" d="M124.1,183.5c-0.7,0.7-2.1,0.8-2.5,1.8c0.4,1.6,1,3.1,2.5,3.6C123.7,186.9,125,185,124.1,183.5z"/>
<path class="st0" d="M117.4,218.2c1.4,0.1,1.9,1,3.5,0.9c0.5-1.3,1.1-2.4,1.6-3.6C120.1,215.7,117.7,216,117.4,218.2z"/>
<path class="st0" d="M114.9,234.5c2.7-0.3,4.5-1.6,6.7-2.4C122.2,225.5,114.2,232,114.9,234.5z"/>
<path class="st0" d="M124.1,178.9c-0.2,1.5-0.7,2.5-1.3,3.6C124.2,183.6,125.6,179.5,124.1,178.9z"/>
<path class="st0" d="M116.7,187.4c0.6,1.4,1.3,2.8,2.6,3.6C119.7,188,118.8,184.5,116.7,187.4z"/>
<path class="st0" d="M117.1,225.7c-2.2-2.3-3.9,1.8-5.7,2.7c-0.2,0.9,0.9,0.6,0.6,1.5C114.2,229,115.8,227.5,117.1,225.7z"/>
<path class="st0" d="M126.6,234.8c0,1.1,0,2.2,0,3.3c1.3,0.2,1.6-0.5,2.9-0.3C128.9,236.5,127.8,235.6,126.6,234.8z"/>
<path class="st0" d="M142.2,195.3c-1.7-0.4-2.7-1.4-4.5-1.8c0.7,1.4,1.5,2.6,2.9,3.3C140.8,196,142.3,196.4,142.2,195.3z"/>
<path class="st0" d="M129.8,177.7c0,0.5,0,1,0,1.5C131.3,179.3,130.7,177.8,129.8,177.7z"/>
<path class="st0" d="M132,171.4c-2.8,4-7.4,6.3-9.9,10.6c1.6,1.5,2.3-0.6,4.1-0.6c1.1,0.6,0.1,1.7,0.6,2.4c2.8-3.1,3.4-8.2,5.7-11.8
	C132.6,171.6,132.5,171.3,132,171.4z"/>
<path class="st0" d="M131.4,227.8c-1.1,0.2-1.2-0.5-2.2-0.3c0.1,0.7,0.3,1.3,1,1.5C130.3,228.3,131.7,228.9,131.4,227.8z"/>
<path class="st0" d="M132.9,174.1c-0.8,3.8-2.7,6.5-3.8,10c1.5-0.1,2.6,0.4,3.8,1.2C132.8,181.8,134.1,176.6,132.9,174.1z"/>
<path class="st0" d="M131.3,186.5c0.2,1-0.6,1.1-0.3,2.1c0.8,0,1,0.5,1.6,0.6c-0.2-1.1,0.4-1.4,0.3-2.4
	C132.5,186.5,132.1,186.4,131.3,186.5z"/>
<path class="st0" d="M119.6,222.1c-1.2-0.1-1.5,0.6-2.2,0.9c0.1,0.9,0.7,1.4,1.6,1.5C118.8,223.3,119.8,223.3,119.6,222.1z"/>
<path class="st0" d="M117.1,195.8c-1.2,3.8-3.8,6.3-4.1,10.9c3.1-1.9,5.6-4.4,8-6.9C119.7,198.4,118.7,196.8,117.1,195.8z"/>
<path class="st0" d="M121.9,214.6c-0.1-1-0.4-1.9-1.6-1.8c-0.1,0.9-0.7,1.4-1,2.1C120.5,215.1,120.8,214.5,121.9,214.6z"/>
<path class="st0" d="M137.7,191.3c1.4-0.6,3.1-0.8,3.8-2.1c-1.1-0.4-2.3-0.9-3.8-0.9C137.7,189.3,137.7,190.3,137.7,191.3z"/>
<path class="st0" d="M131.6,194.3c0.7-0.8-0.7-1.8-1.6-2.1C130.3,193.2,131,193.8,131.6,194.3z"/>
<path class="st0" d="M127,230c1.7,0.1,0.9-2.6,0-2.7C127,228.1,127,229.1,127,230z"/>
<path class="st0" d="M121.2,175.6c-0.5,2-2.5,2.4-3.5,3.9c1.1,1.3,1.3,3.4,2.9,4.2c0.7-2.2,1.9-4,2.5-6.3
	C122.4,176.9,122.4,175.7,121.2,175.6z"/>
<path class="st0" d="M118.7,210.3c-1.6,2.2-4.9,2.8-5.4,6c1.3-0.3,2.5-0.6,3.8-0.9C117.2,213.6,120.4,211.9,118.7,210.3z"/>
<path class="st0" d="M128.5,193.1c-1-0.3-1.9-0.6-2.9-0.9c-0.3,1.6-2.2,3.7-0.6,5.1C126.8,196.6,128.4,195.6,128.5,193.1z"/>
<path class="st0" d="M122.7,193.7c1.5-0.8,1.5-3,2.2-4.5C122.7,187.3,121.9,191.8,122.7,193.7z"/>
<path class="st0" d="M130.2,230.3c0.1,4,4.1,9.3,7,4.5C135.1,232.6,134.2,227.2,130.2,230.3z"/>
<path class="st0" d="M115.2,179.5c-0.7,2.2-1.2,4.5-1,7.5c2-0.5,3.3-1.7,5.1-2.4C118.2,182.7,117.4,180.5,115.2,179.5z"/>
<path class="st0" d="M119,185.9c-1.4,1.2-3.4,1.8-5.1,2.7c0.3,1.8,1.8,2.5,3.5,3C117.4,189.3,119.8,187.8,119,185.9z"/>
<path class="st0" d="M149.8,185.6c-3-5-7.2-8.9-11.2-13c-0.3,4.7-0.8,9.1-0.6,14.2C142.5,188.9,146.3,187.9,149.8,185.6z"/>
<path class="st0" d="M116.1,216.7c-0.6,0.3-1.7,0-1.6,0.9C115.6,217.8,115.9,217.3,116.1,216.7z"/>
<path class="st0" d="M115.8,194c-0.8-0.6-0.9-1.8-2.2-1.8c0.2,2.8-0.2,5.1-0.3,7.5C114.7,198.4,115.2,196.2,115.8,194z"/>
<path class="st0" d="M154.1,200.7c-0.5,0.5-0.5,1.7,0.6,1.5C154.5,201.6,155.1,200.4,154.1,200.7z"/>
<path class="st0" d="M144.2,221.8c0-0.8-0.5-1.2-1.3-1.2C142.8,221.5,143.2,221.9,144.2,221.8z"/>
<path class="st0" d="M146.4,201.9c-0.8-0.6-1-1.9-2.5-1.8c0.1,1.6,0,3-0.3,4.2C144.9,203.9,145.5,202.8,146.4,201.9z"/>
<path class="st0" d="M144.8,231.2c-1,0.1-1.1-0.5-2.2-0.3c0.3,1.1-0.7,3.5,0.6,3.6C143.7,233.3,145.4,233.3,144.8,231.2z"/>
<path class="st0" d="M154.1,189.8c-0.3,0-0.6,0-1,0c0.3,1.1-0.9,1.8,0.3,2.1C153.5,191.1,154,190.7,154.1,189.8z"/>
<path class="st0" d="M151.2,216.4c-0.4-0.3-0.9-0.4-1.6-0.3c-0.4,0.4-0.3,1.3-0.3,2.1C150.3,218,150.9,217.3,151.2,216.4z"/>
<path class="st0" d="M149.9,197c0-1,0-2,0-3c-1.4,0-2.2-0.7-3.5-0.9C147.4,194.6,148.3,196.2,149.9,197z"/>
<path class="st0" d="M153,185.9c0.2,0.7,1.1,0.8,1.3,1.5c2.6-1.8,4.9-3.8,7-6C158.4,182.7,154.9,183.5,153,185.9z"/>
<path class="st0" d="M144.2,211.2c-0.3,0-0.6,0-1,0c0.2,0.5-0.4,1.8,0.3,1.8C143.7,212.4,144.3,212.2,144.2,211.2z"/>
<path class="st0" d="M144.5,194c-0.5,0.4-0.3,1.5-0.3,2.4c1.7,0.4,3.1,2.5,4.5,2.1C147.2,197.1,146,195.4,144.5,194z"/>
<path class="st0" d="M154.4,195.2c-1.2-0.5-1.8,1.1-1,1.5C153.5,196,154.5,196.2,154.4,195.2z"/>
<path class="st0" d="M136.5,220.9c0.5,0.8,0,2.4,1.3,2.4c-0.1-1.1,0.1-2,0.3-2.7C137.4,220.5,136.9,220.6,136.5,220.9z"/>
<path class="st0" d="M155,191.6c-0.3,0.8-0.8,1.5-1,2.4c0.6-0.1,0.7,0.3,1.3,0.3C155.1,193.5,155.7,191.9,155,191.6z"/>
<path class="st0" d="M147,210.9c-1.2-1-1.7,2.4-1,3.3c0.7,0,1.5,0,2.2,0C148.3,212.8,148.6,211,147,210.9z"/>
<path class="st0" d="M136.8,185.6c-1.9-1.7-4.8-8.4-7.3-3.9c1.6,2.2,3.3,4.3,5.4,6C135.7,187.1,136.6,186.7,136.8,185.6z"/>
<path class="st0" d="M143.2,235.1c1.3,0.1,2.1-0.5,3.2-0.6c0.4-0.9,0.1-1-0.3-1.8C144.9,233.2,143.8,233.9,143.2,235.1z"/>
<path class="st0" d="M133.7,178.6c1.2,2.4,3.3,4.1,5.1,6c1.2-1,1.2-3.1,1.3-5.1C137.8,178.2,136.1,176.9,133.7,178.6z"/>
<path class="st0" d="M140,178.6c0-0.9,0-1.8,0-2.7c-1.4-0.1-1.6,0.9-2.9,0.9C137.4,178.1,138.9,178.2,140,178.6z"/>
<path class="st0" d="M137.5,194c-0.5,1-0.3,2.8-0.3,4.2C139.6,198.6,139.8,194,137.5,194z"/>
<path class="st0" d="M138.3,192.8c1.8,0.7,3.1,1.9,5.1,2.4c1.4-1.5,5-0.9,4.5-4.2C144.3,188.8,140.9,190.9,138.3,192.8z"/>
<path class="st0" d="M136.8,199.8c0,1.1,0,2.2,0,3.3c1-0.2,1.2,0.3,1.9,0.3c0-1.2-0.1-2.5,0.3-3.3
	C138.7,199.6,137.7,199.8,136.8,199.8z"/>
<path class="st0" d="M151.8,221.8c-0.1,0.4-0.5,0.6-0.3,1.2c0.4,0,0.8,0,1.3,0C152.8,222.3,152.3,222.1,151.8,221.8z"/>
<path class="st0" d="M148.6,233.3c0.2,0.1,0.4,0.3,0.3,0.6c1-0.2,2.4,0.1,2.5-0.9C150.4,233.2,149,232,148.6,233.3z"/>
<path class="st0" d="M151.2,221.5c-0.9,0.3-1.9,0.6-1.9,1.8c0.5,0,1.1,0,1.6,0C150.6,222.4,151.4,222.4,151.2,221.5z"/>
<path class="st0" d="M153,188.3c-1.4-3-5.4-1.1-6.7,0.9c2,0.1,3.3,0.9,5.4,0.9C151.8,189.2,152.9,189.3,153,188.3z"/>
<path class="st0" d="M149.9,192.8c-0.2-1.3,0.2-2,0.3-3c-1.9-0.8-5.1-0.5-4.5,2.1C147.4,192,148.3,192.7,149.9,192.8z"/>
<path class="st0" d="M144.8,175.9c0,1,0,2,0,3c1-0.2,1.6-0.7,1.6-1.8C146,176.6,145.7,175.9,144.8,175.9z"/>
<path class="st0" d="M149.9,183.8c-1.2,1-2.1,2.2-2.6,3.9c1.2-0.2,1.6-1.1,2.9-1.2c0-0.5,0-1,0-1.5c-0.4,0-0.9,0.1-1-0.3
	C149.6,184.6,150.9,184.1,149.9,183.8z"/>
<path class="st0" d="M156.5,189.8c0.9,0.7,1.1,2.1,2.5,2.4c1.5-2,3.9-6.4,3.5-8.2C160.8,186.2,157.9,187.3,156.5,189.8z"/>
<path class="st0" d="M155.3,183.8c0.1-1.3-1-1.5-1.9-1.8C153.2,183.3,154.1,183.7,155.3,183.8z"/>
<path class="st0" d="M149.9,235.5c0.1,0,0.2,0,0.3-0.1C150.1,235.4,150,235.4,149.9,235.5C149.9,235.4,149.9,235.4,149.9,235.5z"/>
<path class="st0" d="M255.9,144.5c0.2,0.1,0.3,0.3,0.5,0.4c0.1-0.5,0.1-1,0.2-1.5c-0.1,0.1-0.2,0.1-0.3,0.2
	C256.2,144,255.8,144,255.9,144.5z"/>
<path class="st0" d="M248.9,137.3c1.1,1.3,2.5,2.3,3.5,3.6c1.3-1.6,3-2.7,4.7-4c0.1-1.1,0.1-2.1,0.1-3.2c-2-0.7-3.8-1.5-6.1-1.9
	C250.6,133.8,249.7,135.5,248.9,137.3z"/>
<path class="st0" d="M257.2,124.2c-0.1-1.7-0.2-3.4-0.3-5.1c-1,1.3-1.5,3.3-2.2,4.9C255.6,123.9,256.4,124.1,257.2,124.2z"/>
<path class="st0" d="M252.4,129.4c1.7,0.5,3.2,1.1,4.9,1.7c0-0.5,0-1,0-1.5c0-1.1,0-2.2,0-3.3C254.5,126.3,252.2,126.7,252.4,129.4z
	"/>
<path class="st0" d="M249.2,158.1c1.6,0.3,3,1,4.5,1.4c0.1-0.5,0.2-1,0.3-1.5C252.4,157.9,250.7,157.6,249.2,158.1z"/>
<path class="st0" d="M248.6,150c2.3,0.7,4.5,1.5,6.7,2.3c0.3-1.4,0.5-2.9,0.7-4.3c-0.8-0.8-1.7-1.5-2.6-2.2
	C252.1,147.4,250.1,148.4,248.6,150z"/>
<path class="st0" d="M241.9,155.4c4.2-0.1,8.5,0.5,12.7,0.6c0-0.2,0.1-0.3,0.1-0.5C250.1,155.1,245.1,154.7,241.9,155.4z"/>
<path class="st0" d="M110.9,97.4c5.1,0.8,10,2.2,15,2.7c4.8,0.5,8.7,0.7,13.1,0.3c1.2,1.4,4.3,1.2,6.4,1.8c0.7,1.5,1.7,2.8,2.5,4.2
	c3,0.4,6-0.3,7,1.5c1.4-1,4.1-2.7,6.1-1.2c0.9-1.3,0.5-3.7,3.2-3.3c1.4,0.6,0.2,3.7,1.9,3.9c3.1,1,1.7-3.2,4.8-3
	c1,2.1,0.8,4.3,3.2,3.9c2-0.3,0.6-3.5,3.5-3c1.4,1.7,0.5,3,2.2,3.6c2.9,1,1.6-2.9,4.8-3c1.4,1.8,0.8,3.2,2.6,3.6
	c2.8,0.6,0.8-2.9,4.1-3c1.7,1.6,0.5,3.9,2.9,3.9c2.6,0.1,1-3.4,4.1-3.3c1.7,0.7,0.1,4.6,3.5,3.6c1.2,0.4,0.7-3.3,2.9-3
	c2.6,1,0.5,3.6,3.2,3.6c2.4,0,0.6-3.1,3.8-3c2,1.2,0.5,3.6,2.9,3.6c2.3,0.1,1.1-3.7,4.5-3.3c1,1.1,1.2,2.8,1.3,4.8
	c2-0.8,3.2,0.8,5.1,1.2c4.8,1,12.1-0.6,18.2,0.3c1.4,0.2,2.7,1.1,3.8,0.9c1.3-0.2,6.6-4.9,8.3-6.7C245.9,48.4,193.2,2,129.7,2
	C76.3,2,30.6,34.8,11.5,81.3c2.7,0.3,5.5,0.6,8.3,1C49.6,87.4,80.7,92.6,110.9,97.4z M98.6,69.8c1-1.5,2.3-2.5,3.9-3.2
	c0.3-0.1,0.7-0.2,1-0.4c0.3-0.2,0.7-0.5,0.8-0.9c0.5-1.7,1.8-2.7,3.3-3.4c1.1-0.6,2.3-0.6,3.5,0c1.1,0.5,2.2,0.8,3.4,0.8
	c0.9,0,1.7-0.3,2.2-0.9c1-1.2,1.8-2.4,2.7-3.6c0.2-0.3,0.3-0.7,0.3-1c0.3-2.5,1.2-4.9,2.1-7.2c0.9-2.4,2.1-4.8,3.7-6.8
	c1.2-1.6,2.8-2.8,4.7-3.4c1.2-0.4,2.2-1,3-1.9c1.6-1.7,3.3-3.2,5.2-4.5c0,0,0.1,0.1,0.1,0.1c-0.3,0.6-0.6,1.1-1,1.6
	c-0.4,0.5-0.9,1-1.3,1.5c-0.4,0.5-0.9,1-1.3,1.5c2-0.8,3.8-2.1,5.7-3.2c-1.1,1.9-2.9,3-4.4,4.6c1.2-0.6,2.5-1.2,3.9-1.8
	c-0.7,1.1-1.7,1.7-2.7,2.3c1.3,0,2.4-0.8,3.7-1.2c0,0,0.1,0.1,0.1,0.1c-1.1,0.8-2.2,1.6-3.3,2.4c0,0,0,0.1,0,0.1
	c1.5-0.7,3.1-1.4,4.6-2c0,0,0.1,0.1,0.1,0.1c-0.2,0.2-0.4,0.5-0.6,0.7c-1.3,1.3-2.8,2.3-4.5,2.9c-0.4,0.2-0.8,0.3-1.1,0.5
	c-0.3,0.2-0.4,0.5-0.7,0.7c0,0.1,0.1,0.1,0.1,0.2c0.3,0,0.7,0,1-0.1c2.5-0.9,5.1-1.7,7.6-2.7c1.9-0.8,3.8-1.7,5.7-2.7
	c0.5-0.2,0.9-0.6,1.3-0.9c0,0,0.1,0.1,0.1,0.1c-0.5,0.5-0.9,1.1-1.4,1.6c-0.5,0.5-1.1,1-1.6,1.5c0,0,0,0.1,0.1,0.1
	c2.1-0.7,4.3-1.3,6.4-2c0,0.1,0.1,0.1,0.1,0.2c-0.9,0.5-1.7,1.1-2.6,1.6c-0.9,0.5-1.8,0.9-2.7,1.4c0.9-0.1,1.8-0.3,2.7-0.4
	c0,0,0,0.1,0.1,0.1c-0.5,0.3-0.9,0.7-1.4,1c1.1-0.3,2.2-0.6,3.2-0.9c0,0,0,0.1,0.1,0.1c-1.2,1.6-2.9,2.5-4.8,3.4
	c1.3-0.1,2.4-0.2,3.6-0.2c0,0.1,0,0.1,0.1,0.2c-0.4,0.2-0.7,0.5-1.1,0.6c-1.1,0.4-2.1,0.8-3.2,1.2c-0.3,0.1-0.6,0.2-0.6,0.7
	c0,0.2-0.2,0.4-0.3,0.5c-0.4,0.3-0.6,0.7-0.7,1.2c0,0.2-0.2,0.5-0.4,0.5c-1.7,0.7-3.3,1.4-5,2c-1,0.4-1.6,1.1-1.7,2.2
	c-0.3,2.8-0.5,5.6-0.8,8.4c-0.2,1.8-0.4,3.5-0.7,5.3c-0.1,0.9-0.7,1.5-1.4,2c-0.5,0.3-0.9,0.6-1.4,0.8c-1.9,0.8-3.8,1.6-5.7,2.4
	c-0.5,0.2-1.1,0.2-1.7,0.3c0,0.2,0.1,0.5,0.1,0.8c0.2,0.7,0.5,1.3,0.7,2c0.2,0.6,0.4,1.2,0.6,1.8c0.3,1.3,1.5,2.4,2.8,2.5
	c2.9,0.4,5.9,0.7,8.8,1.1c1.4,0.2,2.6,1.1,3.7,1.9c0.1,0,0.1,0.1,0.1,0.1c0.8,0.9,0.6,1.6-0.6,1.9c-0.3,0.1-0.6,0.1-1,0.2
	c0.8,0.7,1.9,0.9,2.5,1.8c-2.3,0.7-4.6,0.3-6.9,0.3c0,0.2,0,0.4,0.1,0.7c-1.1-0.3-2.1-0.5-3.1-0.8c-1.4-0.5-2.8-1.2-4.2-1.7
	c-1.4-0.5-2.9-0.9-4.3-1.4c-0.3-0.1-0.6,0-0.7,0.3c-0.5,1.1-1.4,1.8-2.5,2.2c-0.5,0.2-1,0.5-1.4,0.7c-0.3,0.2-0.3,0.4-0.2,0.7
	c0.2,0.7,0.5,1.5,0.2,2.3c0,0,0,0.1-0.1,0.2c-0.1-0.3-0.2-0.6-0.3-0.8c-0.4-1-0.7-1.1-1.6-0.5c-0.3,0.2-0.5,0.3-0.6,0.7
	c-0.2,0.9-0.1,1.1,0.8,1.5c0.2,0.1,0.3,0.2,0.4,0.3c-0.6,0.1-1.1,0.2-1.7,0c-0.4-0.2-0.6-0.5-0.6-0.9c-0.1-1.2,0.1-2.2,1.2-2.9
	c1.1-0.7,2.2-1.3,3.3-2c0.5-0.3,1.1-0.5,1.3-1.2c0.2-0.5,0-0.8-0.5-1c-0.5-0.1-1-0.2-1.5-0.3c-0.1,0-0.3,0.2-0.3,0.3
	c-0.2,0.5-0.4,1-0.6,1.6c-0.3,0.7-0.6,0.8-1.3,0.5c-1.4-0.6-3-0.9-4.5-1.2c-0.3-0.1-0.4,0.1-0.6,0.3c-0.3,0.7-0.8,1.2-1.6,1.4
	c0.1-0.3,0.2-0.5,0.2-0.7c0.1-0.2,0.2-0.5,0.2-0.7c0-0.2-0.2-0.4-0.3-0.5c-0.1-0.1-0.4,0-0.5,0.1c-0.3,0.3-0.5,0.6-0.8,1
	c-0.3,0.5-0.7,0.8-1.3,0.5c-0.3,0.5-0.1,0.9,0.1,1.3c-1-0.3-1.4-1.6-0.6-2.3c0.2-0.2,0.5-0.4,0.8-0.5c0.5-0.2,1.1-0.4,1.6-0.6
	c1.4-0.5,2.7-0.4,4,0.2c0.8,0.3,1.5,0.6,2.3,0.9c0.3,0.1,0.7,0.2,0.9-0.2c0.3-0.3,0.1-0.7-0.1-0.9c-1-1.4-2-2.7-3-4.1
	c-1.7-2.4-3.5-4.7-4.7-7.4c-0.8-1.8-2.2-3-3.6-4.3c-0.5-0.5-1-0.7-1.7-0.6c-0.4,0.1-0.9-0.1-1.4-0.1c-0.4,0-0.9,0-1.3,0.1
	c-2.1,0.5-4.3,1-6.4,1.5c-0.1,0-0.2,0-0.4,0C98.4,70.1,98.5,70,98.6,69.8z"/>
<path class="st0" d="M67.9,153.3c-0.9-2.4-0.3-3.9,1-5.4c-20.4-15.4-42.4-31.1-63.6-46.7c-0.4,1.9-0.8,3.8-1.2,5.7
	C25.1,122.5,45.9,138.4,67.9,153.3z"/>
<path class="st0" d="M64.1,156c0-1.3,1.6-1.1,1.6-2.4C45.6,138.4,24.8,122.9,4,107.4c-1.3,7.2-1.9,14.7-1.9,22.3
	c0,61.3,43.3,112.6,101,124.8c-1.7-2.2-3.1-4.2-4.8-6C83.1,222.3,66.4,195.2,64.1,156z"/>
<path class="st0" d="M71.7,148.5c1.1-0.1,1.8,0.1,2.5,0.3c0.8,2.1,2.9,2.9,4.5,4.2c-0.9,1.2,0.3,2.6,0,4.2c2.2,0.8,3.6,2.2,5.1,3.6
	c1.8-0.7,3.3,0.7,4.8,1.2c1.2-0.4,1.7-2,3.2-1.2c1.1,0.9-1.3,3.3,0.3,3.6c1.5,2.2,2.4-1.6,4.5-0.6c0.7,1-0.4,2.3-0.3,3.6
	c2.2,2.1,3.1-1.1,5.4-0.3c0.9,1.1-1.1,2.7-0.3,3.6c2,1.6,3.4-0.7,4.8-1.2c-4.9-11-6.9-24.9-9.9-37.7c0.4-0.8,0.9-1.5,1-2.7
	c-26.9-11.8-54.2-23.4-80.9-35c-2.7-1.2-5.4-2.7-8-3.8c-1.1,3.3-2,6.6-2.8,10C27.2,116.6,49.2,132.8,71.7,148.5z"/>
<path class="st0" d="M113.5,182.9c1,0.7,0.9,2.3,2.2,2.7c0-0.7,0-1.5,0.3-1.8C115.1,183.8,114.4,181.9,113.5,182.9z"/>
<path class="st0" d="M34.5,92.9c7.5,2.1,16.4,2.6,24.9,3.9c24.9,3.9,51.1,8.3,74.9,11.5c-1.2-2.1-2.2-4-1.6-6.3
	c-39.9-7-81.5-13.8-121.3-20.1c-0.1,0.2-0.2,0.4-0.2,0.5C18.6,85.5,26.2,90.6,34.5,92.9z"/>
<path class="st0" d="M31.3,92.3c-4.1-2-8.7-3.7-13.4-5.7c-2.3-1-4.7-2.3-7-3.5c-0.8,2.1-1.6,4.2-2.3,6.3
	C16,90.7,23.8,90.7,31.3,92.3z"/>
<path class="st0" d="M239.4,157.8c3.2,2.4,5.4,5.7,8.9,7.9c1.5-1.5,3.5-2.6,5-4.1c0-0.2,0.1-0.3,0.1-0.5
	C248.8,160.1,243.9,156.7,239.4,157.8z"/>
<path class="st0" d="M99.5,128.8c0.3-1.8-1.4-4.5,0.3-6.3c-18.8-8.4-38.2-17.1-57-25.4c-2.7-1.2-5.8-2.9-8.3-3.6
	c-7.8-2.1-19.1-2.3-26.1-3.6c0,0,0,0.1,0,0.1C38.8,102.8,68.5,116.4,99.5,128.8z"/>
<path class="st0" d="M173.2,227.5c0.1,0.1,0.1,0.2,0.2,0.2c0.6-0.2,1.1-0.5,1.7-0.8C174.4,227,173.8,227.2,173.2,227.5z"/>
<path class="st0" d="M146.7,236.1c0.1,0,0.3-0.1,0.4-0.1c-0.1,0-0.2-0.1-0.4-0.1C146.7,236,146.7,236.1,146.7,236.1z"/>
<path class="st0" d="M243.8,174.1c0,1.1,0,2.2,0,3.3c1.6,0.1,2.4,0.8,3.8,1.1c1-2.4,1.9-4.9,2.8-7.4
	C248.1,171,244.8,172.4,243.8,174.1z"/>
<path class="st0" d="M144.4,236.6c-0.2,0-0.4,0-0.6,0.1C144,236.6,144.2,236.6,144.4,236.6z"/>
<path class="st0" d="M142.3,236.9C142.3,236.9,142.3,236.9,142.3,236.9C142.3,236.9,142.3,236.9,142.3,236.9
	C142.3,236.9,142.3,236.9,142.3,236.9z"/>
<path class="st0" d="M114.4,236c0.6-0.2,1.1-1.1,0.6-1.5c-1.4,0-2.3-0.4-3.5-0.6c1.4-1.6,2.9-3.1,4.8-4.2c1.2-6.4,1-14.1,1.6-21.1
	c0.2-1-1-0.7-0.6-1.8c1.2-2.1,2-7.5,0.6-10c0.5,0,1.1,0,1-0.6c0.7-6.6-4.1-8-5.4-12.7c-1.5-0.3-1.1,1.2-2.5,0.9
	c-1.2-0.9,0-2.2,0-3.6c-1-0.3-1.5-1-2.5-1.2c-0.1,1.3-1.5,1.2-1.9,2.1c-2.4-1.2,0.6-4.7-2.9-5.1c-0.4,1.1-1.5,1.6-2.5,2.1
	c-1.3-0.6-0.3-2.7-0.3-3.9c-0.8-0.2-1.5-0.4-1.6-1.2c-1.3,0.2-1.5,1.6-2.9,1.8c-1.6-0.4-0.8-2.6-0.3-3.6c-1.3,0.1-1-1.3-2.2-1.2
	c-0.7,0.7-1.5,1.4-2.6,1.8c-1.4-0.7-0.8-2.4-0.3-3.6c-0.9-0.2-0.8-1.3-1.9-1.2c-0.9,0.5-1.8,1.1-2.5,1.8c-1.3-0.7-1-2.7-0.3-3.9
	c-1.6-0.7-2.6-1.9-2.9-3.9c-2.5,0.8-4.1,3.6-3.2,6.6c2.7,0,4.8,4.7,1.6,5.7c-1.8-0.1-3-3.6-1.3-4.2c-0.5,1.3-0.3,3.7,1.6,3.6
	c1.7-1.6,0-4.7-2.2-4.5c-1.9-3.3,0.9-5.5,1.9-7.9c-1.1-0.8-4-1.5-2.5-3c-0.2,0.1-0.6,0-0.6,0.3c-1.2,0.8-3.2,0.8-4.1,1.8
	c-1.6-0.9-2.2-2.7-5.1-2.4c2.1,23.9,8.9,44.5,16.9,63.7c5,12.2,11.3,23.6,18.5,33.6c2.3,0.5,4.6,0.8,6.9,1.2
	c1.1-0.9,2.3-1.7,3.3-2.7C114.2,247.3,116.7,240.7,114.4,236z M113.5,195.6c-0.3,0.6-2.2,0.3-2.5,0
	C111.4,194.2,112.3,195.8,113.5,195.6z"/>
<path class="st0" d="M116.1,235.7c0.5,0.9,0.9,1.9,1.5,2.7c0.5,0,0.9,0,1.4,0c0.5-1.4,1-2.9,1.6-4.3
	C118.7,234.4,117.8,235.3,116.1,235.7z"/>
<path class="st0" d="M153.1,188.6c2.1,0.3,2.4-1.1,2.5-2.7C154.3,184.4,152.5,186.3,153.1,188.6z"/>
<path class="st0" d="M243.6,187.1c0.3-0.5,0.5-1,0.8-1.5c-0.2,0-0.4,0-0.6,0C243.7,186.1,243.6,186.6,243.6,187.1z"/>
<path class="st0" d="M209.2,201.3c0.3,0.7,0.9,1.1,1.5,1.5c1-1,2-2,3-3C212.1,198.2,210.9,200.9,209.2,201.3z"/>
<path class="st0" d="M179.2,223.6c-1.3,0.2-2.1,1.1-2.9,1.8c0.2,0.2,0.5,0.4,0.7,0.7c1-0.5,2.1-1,3.1-1.5
	C180,224.2,179.7,223.8,179.2,223.6z"/>
<path class="st0" d="M243.8,184.1c0.5-0.1,0.9-0.1,1.3,0c0.6-1.3,1.2-2.5,1.7-3.8c-1,0.3-1.9,0.9-3,1.4
	C243.8,182.5,243.8,183.3,243.8,184.1z"/>
<path class="st0" d="M135.6,222.7c0-0.4,0-0.8,0-1.2c-0.9-0.2-0.8,0.4-1.6,0.3C133.9,222.7,134.8,222.7,135.6,222.7z"/>
<path class="st0" d="M202.5,209.4c-0.3-0.9-0.4-2-1.6-2.1c-2.9,3.3-8.1,4.4-9.9,8.8c-0.2-0.2-1.6-0.8-1.3,0.3c0.4,0.8,1.4,1,2.4,1.2
	c0.8-0.5,1.5-1,2.3-1.5c0.1-0.8,0.2-1.5,0.4-2.1c0,0.6,0,1.2,0,1.8c1.6-1.1,3.1-2.2,4.7-3.4C200.3,211.4,201.6,210.7,202.5,209.4z"
	/>
<path class="st0" d="M181.5,223.9c0.1-0.1,0.3-0.1,0.4-0.2c-0.2,0-0.3,0-0.5,0C181.5,223.7,181.5,223.8,181.5,223.9z"/>
<path class="st0" d="M162.3,188.9c-0.7-1.6-1.7-2.8-3.2-3.6C159.9,186.7,161,187.9,162.3,188.9z"/>
<path class="st0" d="M163.3,181c0-1.2,0-2.4,0-3.6c-1.3,0-2.6,0.1-3.5-0.3c-0.3,0.8-0.8,1.5-0.6,2.7
	C160.4,180.4,161.9,180.6,163.3,181z"/>
<path class="st0" d="M116.7,179.9c0.8,0,1,0.5,1.6,0.6c3.1-1.9,4.2-4,6.7-6.3c2.1-2,6.8-7.3,9.2-8.2c2.6-0.9,7.1,0.8,10.5,1.8
	c2.6,0.8,5.3,1.6,8,2.4c3,0.9,14,3.3,15.6,5.1c0.8,1-1.2,2.4,0.3,3.3c-1.6,0.7-1.6,4.5-1,6.3c0.6-0.4,0.6-1.5,1-2.1
	c4.4-1.6,6.7-5.1,9.9-7.9c-5.3-3.2-8.5-8.5-14.3-11.2c0.4,0,0.9,0.1,1-0.3c-4.1-3.7-7.2-8.3-11.2-12.1c-0.6,0.3-0.4,1.2-1.6,0.9
	c-1-0.6-0.6-2.5-0.6-3.9c-1.4,0.2-1.4-0.9-2.5-0.9c-0.2,1.4-1.3,2-2.2,2.7c-1.7-0.1-1.2-2.3-1.3-3.9c-1.1,0-1.4-0.9-2.5-0.9
	c-0.2,1.3-1.3,1.8-2.2,2.4c-1.8,0.1-1.2-2.1-1.3-3.6c-1-0.2-1.4-0.9-2.5-0.9c-0.4,1-1.4,1.5-1.9,2.4c-2-0.4-1.4-2-1.3-3.9
	c-1.5,0.2-1.4-1.1-2.9-0.9c0,1.4-1.2,1.7-1.9,2.4c-1.8,0.1-1.2-2.1-1.3-3.6c-1.1-0.2-1.6-0.9-2.5-1.2c-0.5,1.3-1.3,2.2-2.6,2.7
	c-1.4-0.3-0.9-2.4-1-3.9c-2-0.6-2.9-2.2-4.1-3.6c-1.8,1.9-4.4,5.9-2.2,8.8c2.6,0,5.4,4.3,2.5,5.7c-1.6-0.4-3.1-2.4-2.2-4.2
	c0.5,1.7,0.8,3.5,2.5,3.9c0.9-1.5-0.2-3.3-1-4.2c-5.7-0.9-2.6-7.1-1-10c-3.5-2.3-6-2-8.9,0.6c-1.1-1.6-4.5-2-6.1-1.5
	c4,14.8,8.5,29.2,13.7,42.9c0.5,0.4,1.3,0.4,1.6,0.9C116.1,177.3,116.4,179.1,116.7,179.9z M154,162.6c0.6-0.6,0.8,0,1.6,0
	C155.7,163.3,153.6,163.7,154,162.6z"/>
<path class="st0" d="M165.2,199.5c-0.3-0.7-1.5,0.2-1.6,0.6c0.5,0,1.1,0,1.6,0C165.2,199.9,165.2,199.7,165.2,199.5z"/>
<path class="st0" d="M171.8,162.9c-1.8,0.2-2.6,1.4-4.5,1.5c1.6,2.1,3.9,3.7,6.1,5.4c2,1.7,3.8,4.3,6.4,4.5c0-2.2-2.1-4-3.5-5.7
	C174.7,166.8,172.8,165,171.8,162.9z"/>
<path class="st0" d="M175.1,184.4c1.2,0.5,2.8,0.8,4.1,1.2C179.6,182.5,175.8,181.8,175.1,184.4z"/>
<path class="st0" d="M159.2,191.9c0.1-0.9,1.6-0.5,1.3-1.8c-0.5,0-1.1,0-1.6,0C159,190.6,158.4,191.9,159.2,191.9z"/>
<path class="st0" d="M163.3,182.6c-1.2-0.6-2.6-1-4.1-1.2c0.8,2.2,2.2,3.8,4.1,4.8C162.6,185,163.6,184.2,163.3,182.6z"/>
<path class="st0" d="M129.5,185c-0.5,2.3-0.1,5.6-0.6,7.9C132.9,191.7,133.8,186.4,129.5,185z"/>
<path class="st0" d="M129.5,216.4c0.6-1.2,2.1-1.5,2.5-2.7c-1.7-0.2-2.6,0.4-3.8,0.6C128.2,215.4,128.8,216,129.5,216.4z"/>
<path class="st0" d="M135.3,201c-1,0.1-1.9,0.2-1.9,1.2c0.9-0.2,0.8,0.4,1.6,0.3C134.7,201.6,135.4,201.7,135.3,201z"/>
<path class="st0" d="M134.9,219.7c-0.4-2.1-3.1-2.2-3.5,0c0.2,0.4,0.5,0.8,0.6,1.2C133.5,220.9,134.4,220.5,134.9,219.7z"/>
<path class="st0" d="M134.9,196.4c-0.3,0.9-1.6,0.9-1.6,2.1c0.5,0,1.1,0,1.6,0C135.2,198.3,135.6,196.6,134.9,196.4z"/>
<path class="st0" d="M131.1,199.8c0.4,0.2,0.6,0.6,0.6,1.2c1.2-0.2,2.2-0.6,2.5-1.5C133.3,199.7,131.6,199.1,131.1,199.8z"/>
<path class="st0" d="M170.8,191c-1,1.5-3.2,2-3.8,3.9c1.4,0,2.8,0,4.1,0C171,193.7,171.6,191.7,170.8,191z"/>
<path class="st0" d="M154.9,150c0.6,2.6,2.8,4.9,5.4,7.9c3.1,3.5,6.1,8,10.5,4.8c-1-2.7-3.2-4.2-4.5-6.6c-1.1,0.1-1.5,0.5-2.5,0
	c-0.4-0.8-0.4-2.1-0.3-3.3c-0.9-0.2-1.3-0.8-2.2-0.9c-0.7,1-1.3,2.2-2.5,2.7c-1.3-0.4-1.6-2.5-1-3.9
	C156.4,150.8,155.8,149.3,154.9,150z"/>
<path class="st0" d="M167,153.9c-0.6,3.4,2.9,5.3,4.5,7.5c1.1-1.8,2.9-4.5,2.5-6.6c-1.4,0.9-1.3,3.2-3.2,3.6
	c-1.4-0.3-1.4-2.1-1.3-3.9C168.3,154.7,168.3,153.7,167,153.9z"/>
<path class="st0" d="M170.9,187.7c2-0.7,5.5,0,7-1.2C174.9,185.5,172.2,184.7,170.9,187.7z"/>
<path class="st0" d="M116.3,132.4c-0.7-0.3-1-1-2.2-0.9C114,132.5,115.8,133.2,116.3,132.4z"/>
<path class="st0" d="M109,126.4c-2.2,0.2-2.8-1.7-4.5-0.3c-1.2-0.5-1.5-1.8-2.5-2.4c-0.5,1.6-1.9,3-1,5.1c3.4-0.2,3.4,2.8,6.4,3
	C107.7,129.8,108.9,128.7,109,126.4z"/>
<path class="st0" d="M159.1,146.3c-0.9-0.4-1.3-2.8-2.2-2.1c0.9,0.3-0.1,1.3,0,1.8C157.8,145.8,158.8,147,159.1,146.3z"/>
<path class="st0" d="M186.5,182.9c0.1-4.5-4.1-2.5-5.1-0.3C183.4,182.3,184.5,183,186.5,182.9z"/>
<path class="st0" d="M178.2,185.6c3,0.4,5.2,1.5,8,2.1c0.6-0.7,0.2-2.4,0.3-3.6C183.7,184,178.6,182.7,178.2,185.6z"/>
<path class="st0" d="M173.1,195c2.1,0.7,5.4,0.1,8,0.3c-2-2.7-4.6-4.7-8-6C173.1,191.1,173.1,193,173.1,195z"/>
<path class="st0" d="M178.3,188c-2,0.8-5.6,0.2-7.3,1.2c3-0.2,5,0.4,8,0.3C178.8,188.9,179.3,187.7,178.3,188z"/>
<path class="st0" d="M165.2,181.6c1.9,0.1,2.9,1.1,4.8,1.2c1.6-1.7,4.2-2.5,5.1-4.8c-2.8-0.5-6.5-0.3-9.6-0.6
	C165.2,178.6,165.1,180.1,165.2,181.6z"/>
<path class="st0" d="M180.7,193.1c-1.7-2.1-3.3-4.3-6.1-5.4C175.8,190.3,178.7,191.3,180.7,193.1z"/>
<path class="st0" d="M176.3,186.8c3.2,2.5,6.3,6.7,9.6,8.2c0.7-1.5,0.1-4.1,0.3-6C182.7,188.7,178.7,186,176.3,186.8z"/>
<path class="st0" d="M178.3,195.5c0.4-0.8,0.5-1.8,0.6-2.7c-1.8,0.1-2.8,1-3.8,1.8C176.1,195,177.2,195.2,178.3,195.5z"/>
<path class="st0" d="M155.9,195c3.6-1.9-2.6-6.2-2.9-1.5C154.4,193.5,154.7,194.7,155.9,195z"/>
<path class="st0" d="M223.4,169.9c3.3,1.5,9.2,0.5,13.4,1.2C233.5,169.6,227.5,170.7,223.4,169.9z"/>
<path class="st0" d="M227.2,190.7c1-1.1,3-1.4,3.8-2.7C229.1,185.2,225.6,186.6,227.2,190.7z"/>
<path class="st0" d="M222.8,154.5c1.7-0.2,2.6,0.4,4.1,0.3c0.1-0.9,0.6-1.3,0.6-2.1c-1.4-1.7-3.2-3-4.8-4.5
	C222.8,150.3,222.8,152.4,222.8,154.5z"/>
<path class="st0" d="M226.3,161.7c1.8-1.2,3.7-2.4,4.8-4.2C227.2,156.1,227.3,159.6,226.3,161.7z"/>
<path class="st0" d="M187.2,203.4c2.9-0.7,7.2,1.5,8-0.9c-2.9-0.4-5.3-1.4-8-2.1C187.2,201.4,187.2,202.4,187.2,203.4z"/>
<path class="st0" d="M234.6,175.9c-2.5-1.5-4.3-0.2-6.7,0.6c0.5,1.3,1.4,2.3,2.6,3C231.6,178.1,233.6,177.6,234.6,175.9z"/>
<path class="st0" d="M233.6,172c-1.9,0.2-4.7-0.4-6.1,0.3C229.6,172.6,232.5,174.1,233.6,172z"/>
<path class="st0" d="M226,168.7c4.1-0.1,8.9,0.6,12.1,0.3c-3.4-0.9-6.3-2.3-9.9-3C227.9,166.9,224.6,168.1,226,168.7z"/>
<path class="st0" d="M226.9,175.6c0.3-0.9,2.1-0.4,2.2-1.5c-1.9,0-3.8-1.6-5.1-1.2C224.9,173.9,225.8,174.9,226.9,175.6z"/>
<path class="st0" d="M233.9,187.4c-0.2,1,2.2,3.4,3.5,3C235.9,189.8,235.6,187.9,233.9,187.4z"/>
<path class="st0" d="M228.2,191c2.6,1.6,6.4,2,9.2,3.3C235.4,191.6,231.4,186.7,228.2,191z"/>
<path class="st0" d="M219.4,179.2c3.1-0.7,7.4,1.7,8.6-0.9c-3.1-0.6-5.6-1.8-8.6-2.4C219.4,177,219.4,178.1,219.4,179.2z"/>
<path class="st0" d="M217.1,175.3c0,1.5-0.2,3.2,0.6,3.9C217.4,178,218.5,175.5,217.1,175.3z"/>
<path class="st0" d="M225.7,180.8c0,0.5,0,1,0,1.5c0.4,0,0.8,0,1.3,0C227,181.3,226.5,180.8,225.7,180.8z"/>
<path class="st0" d="M219.1,181.9c0.5,0.9,1.6,2.3,2.9,1.5C221.9,182.2,220,180.4,219.1,181.9z"/>
<path class="st0" d="M222.9,182.6c0.6-0.3,1-0.7,1.3-1.2c-0.8,0-1.7,0-2.5,0C221.6,182.1,222.1,182.5,222.9,182.6z"/>
<path class="st0" d="M215.1,196.5c2.5,0.2,4.9-2.1,7-3.3C218.9,191.5,217.2,195.1,215.1,196.5z"/>
<path class="st0" d="M208.9,190.4c0.4,0.5,1.3,0.4,1.3,1.2c0.6,0.1,0.7-0.3,1.3-0.3C211.4,190.4,209.5,189.7,208.9,190.4z"/>
<path class="st0" d="M207.8,188.6c1.3,2,3.5,3.2,5.4,4.5c0.3-1,1.7-1,1.9-2.1C212.8,190.1,210,189.7,207.8,188.6z"/>
<path class="st0" d="M211.1,185.6c0.1,1.1-1,1.1-1,2.1c0.8,0.7,2.3,0.7,3.2,0C212.9,186.7,212.1,186,211.1,185.6z"/>
<path class="st0" d="M191.7,193.7c-2,0.9-3.8,1.9-4.1,4.2c3.4,1.2,6.8,2.4,10.8,3C197,197.7,194,196.1,191.7,193.7z"/>
<path class="st0" d="M233.6,187.1c-0.1-1-0.9-1.3-1.3-2.1c-0.5,0-1.1,0-1.6,0C231.2,186.1,232,187,233.6,187.1z"/>
<path class="st0" d="M199.3,193.4c-2.3,0.1-2.1-0.4-4.5-0.3c1.7,1.8,4.8,5.2,6.7,4.8C200.5,196.8,198.4,195.5,199.3,193.4z"/>
<path class="st0" d="M198.3,189.8c-0.1-1.1,1.2-2.7,0-3c-1,1.5-2.8,2.4-3.8,3.9c2.3-0.5,3.7,1.2,7,0.6c0.3-2.3-1-3.1-1.9-4.2
	C198.9,187.7,199.8,189.9,198.3,189.8z"/>
<path class="st0" d="M223.7,161.7c0.7-1.7,1.8-2.9,1.9-5.1c-1.1,0.1-2.6-0.2-3.2,0.3C222.9,158.5,221.4,161.9,223.7,161.7z"/>
<path class="st0" d="M224.4,146.6c1.7,1,2.5,2.9,4.5,3.6c0.4-1.5,1-2.7,1.6-3.9C228.6,145.6,225,143.6,224.4,146.6z"/>
<path class="st0" d="M214.9,182.6c0-0.5,0-1,0-1.5c-1.3,0-2.5,0-3.8,0C211.9,182.3,213.2,183.8,214.9,182.6z"/>
<path class="st0" d="M232,141.8c-2-0.2-3.4,0.2-3.8,1.5c1.2,0,2,0.5,2.9,0.9C231.5,143.6,232,142.9,232,141.8z"/>
<path class="st0" d="M211.4,178.6c-0.7,0.4,3.2,0.6,3.5,0C214.1,178.3,212.2,178,211.4,178.6z"/>
<path class="st0" d="M214.9,175c-1.5,1.6-4.3,2-5.7,3.6c2-0.7,4.5-1.3,6.7-0.3C215.1,177.7,216.3,175.1,214.9,175z"/>
<path class="st0" d="M239,172.6c-2-0.9-3.7,0.8-5.1,1.5C236,175.6,238,173.9,239,172.6z"/>
<path class="st0" d="M143.1,109.5c0.4-1.6,0.3-3.8,0.6-5.4c-2-0.7-3.9-0.6-5.7,0c-1.2-0.3-1.6-1.3-2.5-1.8c-0.3,1.6-1.1,4.2,0,5.4
	C138.1,107.2,140.4,109.1,143.1,109.5z"/>
<path class="st0" d="M150.8,140.3c0.6,0.7,0.2,2.4,0.3,3.6c0.6,0.2,1.3,0.2,1.6,0.6c1.6-0.2,1.9-1.9,3.2-2.4
	c-7.4-10.4-14.6-21-21-32.3c-0.4,1.1-0.5,2.6-1,3.6c3.4,10.5,8.3,19.6,14,27.8C149.1,141.1,149,139.9,150.8,140.3z"/>
<path class="st0" d="M137.1,111.3c6.1,12.8,14.6,23.3,22.3,34.4c1.2-0.3,1.3-1.6,2.9-1.5c0.1,0.2,0.3,0.4,0.6,0.3c0,1.2,0,2.4,0,3.6
	c1,0,1.5,0.4,2.2,0.6c0.7-1.1,1.2-2.3,2.6-2.7c0.1,0.4,0.5,0.3,1,0.3c0.5,1.3,0.3,2.2,0,3.6c0.6,0.3,1.6,0.1,1.9,0.6
	c1.7-0.5,1.9-3,4.1-2.1c0,1.7,0,3.3-0.3,4.5c1.8,0.4,3.6,0.8,4.1,2.4c-1.4,0.4-2,0.1-3.5,0c-1.2,2.1-1.9,4.8-3.2,6.9
	c3.3,3.3,5.4,7.7,9.2,10.6c1.4-0.7,2.6-1.6,2.9-3.3c0.5,0,1.1,0,1.6,0c2.5-3.2,6.6-5,8.9-8.5c-4.2-1.6-9.3-2.4-12.7-4.8
	c1.8,0.4,2.8-0.1,4.5,0.6c0,0.5-0.8,0.2-0.6,0.9c2.3,1,5.1,1.6,7.6,2.4c-1.2-2-4.9-1.6-6.7-3c3.4,0.8,6.6,1.8,9.6,3
	c1.7-1.9,4.7-2.6,5.1-5.7c0.4,0.1,0.6,0.4,1.3,0.3c7.8-6.7,17.6-15.2,25.8-22.3c3.2-2.8,7.4-5.2,8.6-8.2c4.2-1.8,7.1-4.9,9.9-8.2
	c-8.5,2.2-17.6-2.7-25.5-0.3c-0.5,5.9-1.8,9.6-8,10.6c-3,0.4-5.6,0.3-8.3,0.6c-1.3,0.2-3.6,1.4-4.1,0c4.1-1.2,9.9,0,14.3-1.2
	c4.5-1.2,4.7-5.3,5.4-10c-1.8,0.6-0.6,4-2.9,4.2c-2,0.1-1.9-1.8-2.2-3.3c-1.2,0.2-1.4-0.5-2.5-0.3c-0.6,1.2-0.5,3-1.9,3.3
	c-2-0.1-2.3-1.7-2.2-3.6c-0.9,0-2.1,0.2-2.5-0.3c-0.9,1-0.7,3-2.2,3.3c-2.1,0.1-1.8-2.1-2.2-3.6c-1,0-1.9,0-2.9,0
	c-0.1,1.3-0.8,2.1-1.3,3c-2.6,0.5-2.3-1.8-2.9-3.3c-1,0-1.6-0.5-2.9-0.3c0,1.4-0.7,2.1-1.3,3c-0.4,0-0.9,0-1.3,0
	c-1.1-0.4-0.9-2.1-1.3-3.3c-1,0-1.6-0.5-2.9-0.3c-0.4,1.2-0.6,2.6-1.9,3c-2.2,0.1-1.6-2.3-2.2-3.6c-1.3,0.2-1.8-0.3-2.9-0.3
	c-0.4,1.3-0.8,2.6-1.9,3.3c-1.9-0.1-1.8-2.1-1.9-3.9c-1.1,0.5-2-0.1-3.2-0.3c-0.2,1.5-0.7,2.7-1.9,3.3c-2.1,0-1-3.1-2.2-3.9
	c-0.5,0.8-1.4-0.4-2.5,0c-0.2,1.5-1.1,2.4-1.9,3.3c-2.3,0.1-1.6-2.7-2.2-4.2c-2.5,0.9-4.1-1.6-5.7-2.4c-1.9,1.8-2.3,7.2,0.3,8.5
	c1.3,0.3,1-0.9,2.2-0.6c2,0.9,3.5,2.9,2.9,5.4c-2.8,1.3-4.9-1.9-4.5-3.6c0.9,1.4,1.3,3.4,3.5,3.6c1.4-1.8-0.4-4.3-2.2-4.8
	c-4.9,1.3-4.8-4.3-3.8-8.2c-1.4-0.7-4.4,0.2-5.1-1.2c-1.3,1.3-2.6,2.6-3.8,3.9C141.8,110.3,138.7,111.2,137.1,111.3z"/>
<path class="st0" d="M148.5,107.1c-0.2,0.2-0.4,0.4-0.6,0.6C148.7,108,149.8,106.9,148.5,107.1z"/>
<path class="st0" d="M152.7,107.7c-0.7,0.1-2.4-1.2-2.2,0C150.5,108.2,152.6,108.2,152.7,107.7z"/>
<path class="st0" d="M105.8,122.2c0.6,2.1,3.3,2.3,5.1,3.3c0.4,1.6,1,3.1,1.3,4.8c2.3,0.6,4.9,0.8,5.7,2.7c1.9-0.6,3.6-0.8,5.4,0.3
	c1.6-0.5,1.7-2.9,3.8-2.1c0.7,0.9,0.1,2.6,0,3.6c0.9,0.1,1.3,0.6,2.2,0.6c0.7,0.3,1.8-3,3.5-1.8c0.7,0.6,0.1,2.5,0.3,3.6
	c0.9,0.2,1.7,0.4,2.5,0.6c0.9-0.9,1-2.5,3.2-2.1c0.5,1.3,0.1,2.2,0,3.9c1.3-0.3,1.5,0.6,2.6,0.6c0.7-1,1.1-2.4,3.2-2.1
	c0.6,0.7,0.2,2.4,0.3,3.6c1.1-0.1,1.5,0.6,2.5,0.6c-6.3-9.2-10.9-20.1-15.9-30.5c0-1,0.5-1.5,0.3-2.7c-30.7-5.4-63.5-10.3-94-14.8
	c21.5,9.3,42.4,19.2,64.7,27.8C103.7,122.2,104.8,122.2,105.8,122.2z"/>
<path class="st0" d="M147.9,107.7C147.9,107.7,147.9,107.7,147.9,107.7C147.9,107.7,147.9,107.7,147.9,107.7
	C147.9,107.7,147.9,107.7,147.9,107.7z"/>
<path class="st0" d="M243.5,116.1c-2.2-1.5-6.9-0.7-10.2-1.2C235.3,116.7,240.2,115.6,243.5,116.1z"/>
<path class="st0" d="M111.6,173.5c-0.2,1-0.5,1.9-0.6,3c1.2-0.1,1.2,1.1,2.5,0.9c1.7-1.5,0.3-3.9-0.3-5.4
	c-4.9-12.8-9.7-26.9-12.7-41.1c-0.4,0-0.4-0.4-1-0.3c-2.5,3.5-0.6,8.7,0.3,13.6c2.1,10.8,5,21.7,8.9,29.3
	C110,173.4,110.6,172.4,111.6,173.5z"/>
<path class="st0" d="M65,159c-1.1,8.1,2.5,17.4,4.1,24.8c5.2,22.7,17.8,45.3,27.7,60.4c-14.5-25.2-24.6-54.6-29.3-89.1
	C66.6,155.9,65.2,157.6,65,159z"/>
<path class="st0" d="M163.5,187.1c-0.1,0.6-0.7,0.8-0.6,1.5C163.8,189,164.2,187.3,163.5,187.1z"/>
<path class="st0" d="M71.7,154.8c-0.1,1.8,1.4,2.1,2.5,2.7c0.5-1.6,1.8-2.6,2.2-4.2c-1.7-0.5-2-1.9-4.1-1.2
	c-0.7-0.8-0.6-2.4-1.9-2.7c-0.6,1.5-2.1,2-1.6,4.5C70.3,153.7,70.8,154.5,71.7,154.8z"/>
<path class="st0" d="M106.5,171.1c0.1,1-0.1,1.7-0.3,2.4c0.7,0.3,0.9,0.9,1.9,0.9C107.9,173,107.5,171.8,106.5,171.1z"/>
<path class="st0" d="M81.6,160.2c0-1-0.9-1.1-1.6-1.5C80,159.8,81.1,159.7,81.6,160.2z"/>
<path class="st0" d="M244.5,153.6c2.6,0,5.4-0.1,7.6,0.3C249.8,152.6,245.6,150.2,244.5,153.6z"/>
<path class="st0" d="M230.4,152.1c1.6,0.9,2.3,2.7,4.1,3.3c1.2-2.5,5.2-2.3,5.1-6c-2.3-0.8-4.6-1.6-7-2.4
	C231.8,148.6,231.2,150.4,230.4,152.1z"/>
<path class="st0" d="M239.4,142.1c-3.3-0.3-6-0.1-5.7,3c2.4,0.3,3.9,1.3,6.1,1.8C239.5,145.4,240,143.2,239.4,142.1z"/>
<path class="st0" d="M237.8,158.4c1.3,1.8,3.1,3.1,4.8,4.5c0.9,1.3,1.6,1.3,0.3,0c-0.8-0.7-1.9-1.2-2.2-2.4
	C239.2,160.3,239.2,158.7,237.8,158.4z"/>
<path class="st0" d="M239.4,177.4c-1.7,2.1-4.8,2.9-6.1,5.4c1.4,0.9,4.6,1.3,6.7,0.6C240.1,182.5,241.2,178.2,239.4,177.4z"/>
<path class="st0" d="M239,133.7c-1.6,1.5-2.5,3.7-3.2,6c1.3,0,2.6,0,3.8,0C239.3,137.8,240.5,134.5,239,133.7z"/>
<path class="st0" d="M235.5,160.2c-1.4,1.5-3.6,2.2-4.5,4.2c5,0.9,8.8,2.9,13.7,3.9C242.1,165.2,239.1,162.4,235.5,160.2z"/>
<path class="st0" d="M243.5,181.1c1.1-0.2,1.9-0.8,2.5-1.5c-1,0-1.4-0.7-2.5-0.6C243.9,179.9,243.6,180,243.5,181.1z"/>
<path class="st0" d="M246.7,142.7c-0.5,1.2-0.9,2.6-1.6,3.6c1.7-0.8,3-2,4.1-3.3C248.3,143,247.1,143.2,246.7,142.7z"/>
<path class="st0" d="M252.1,122.8c0.1,0.8-1.2,0.2-1,1.2C252.1,124.4,253,123.1,252.1,122.8z"/>
<path class="st0" d="M242.5,130.6c1.2,1.9,2.7,3.7,4.8,4.8c0.3-1.7,1.4-2.7,1.6-4.5C246.8,130.1,244.2,128.6,242.5,130.6z"/>
<path class="st0" d="M251.1,126.1c-2-0.1-4.1-0.2-4.1,1.5c1.3,0.1,1.8,0.9,3.2,0.9C250.4,127.6,250.9,126.9,251.1,126.1z"/>
<path class="st0" d="M241.3,133.7c0,2.1,0,4.2,0,6.3c1.4,0,2.8,0,4.1,0C247,136.9,242.8,135.6,241.3,133.7z"/>
<path class="st0" d="M240.3,185.6c-0.8-0.6-3-0.4-3.5,0.3c0.7,1.5,2,2.5,3.5,3.3C240,187.7,240.4,187.4,240.3,185.6z"/>
<path class="st0" d="M241.9,147.8c0.9-1.7,1.7-3.4,2.2-5.4c-1,0-1.9,0-2.9,0C241.6,144.1,240.6,147.1,241.9,147.8z"/>
<path class="st0" d="M178.3,206.7c-2.1-1.5-3.8,1.9-5.1,3c1.7,0.3,3.1,0.9,4.8,1.2C177.7,209.2,178.4,208.4,178.3,206.7z"/>
<path class="st0" d="M184,199.8c-0.7,1.3-2.2,1.7-2.9,3c0.9,0.8,1.7-0.2,2.9,0C183.6,201.5,184.9,200.5,184,199.8z"/>
<path class="st0" d="M179.5,202.8c1.5-0.9,2.8-2,3.8-3.3c-1-0.4-2.2-0.8-3.5-0.9C179.4,199.5,179.4,202.2,179.5,202.8z"/>
<path class="st0" d="M181.1,192.8c-1.2-0.2-1.6,0.3-1.6,1.2C180.3,193.9,181.2,193.8,181.1,192.8z"/>
<path class="st0" d="M183.1,211.8c-1.4-1.2-2.5-2.7-3.8-3.9c-0.3,1-0.2,1.7-0.3,3.3C180.3,211.2,181.9,212.6,183.1,211.8z"/>
<path class="st0" d="M189.3,182.6c2.1,0.5,4.6,0.4,7,0.6c-1.3-3.6-5.1-4.8-7.6-7.2C188.9,178.1,188.1,181.3,189.3,182.6z"/>
<path class="st0" d="M176.4,205.2c-2.8-0.8-4,1.4-2.9,3.3C174.2,207.2,175.9,206.8,176.4,205.2z"/>
<path class="st0" d="M178,200.1c-0.2,0.4-0.5,0.7-1,0.9c0,0.7,1.1,1.9,1.6,1.2C177.5,201.7,179.4,200.2,178,200.1z"/>
<path class="st0" d="M181.8,185.9c-0.8-0.1-1.5-1.6-1.9-0.3C180.2,185.8,181.3,186.8,181.8,185.9z"/>
<path class="st0" d="M179.2,181.6c2.3,1.2,3.7,3.2,6.1,4.2C184.7,183.3,181.5,181.6,179.2,181.6z"/>
<path class="st0" d="M170.3,197.3c-0.2,1.1,0.4,1.5,1.3,1.5C171.6,198,170.9,197.7,170.3,197.3z"/>
<path class="st0" d="M190.9,190.4c-1,0-1.4-0.7-2.5-0.6c0.1,1.1-0.1,2-0.3,2.7C189.7,192.5,190.1,191.2,190.9,190.4z"/>
<path class="st0" d="M179.9,188c0,0.5,0,1,0,1.5c2.7,0.3,3-1.5,5.1-0.3C184,187.8,181.8,187.7,179.9,188z"/>
<path class="st0" d="M182.7,196.7c0.4,0.3,0.9,0.4,1.6,0.3c0-0.5,0-1,0-1.5C183.4,195.6,183.1,196.2,182.7,196.7z"/>
<path class="st0" d="M180.5,205.2c1.1,1,1.9,2.5,3.5,3c0-1,0-2,0-3C182.6,205.6,181.1,204.5,180.5,205.2z"/>
<path class="st0" d="M183.7,220.3c-0.8,0.3-1.8,0.5-1.9,1.5c1.2-0.3,1.8,0,2.5-0.3C184.6,220.7,183.7,220.9,183.7,220.3z"/>
<path class="st0" d="M174.8,192.5c-2,0.3-5.5-0.6-6.1,0.3C170.7,193.7,173.6,194.7,174.8,192.5z"/>
<path class="st0" d="M159.2,196.7c-0.6,0.2-1.5,3.3,0.3,3C159.9,199.5,160.3,196.6,159.2,196.7z"/>
<path class="st0" d="M160.1,204.3c0,0.8-0.1,1.7,0.3,2.1c0.6,0,1,0.1,1.3,0.3c0.5-0.4,0.5-2,0-2.4
	C161.2,204.3,160.6,204.3,160.1,204.3z"/>
<path class="st0" d="M160.1,202.2c0.4,0.3,1.1,0.3,1.9,0.3C162.6,200.5,160.1,200.8,160.1,202.2z"/>
<path class="st0" d="M152,184.4c2.2-0.9,4.4-2.2,6.7-3.3c1.9-1,5.6-1.5,5.4-4.5c-7.7-3-17.5-5.8-25.5-7.5
	C142.5,174.7,147.2,179.6,152,184.4z"/>
<path class="st0" d="M159.5,205.5c0-0.4,0-0.8,0-1.2c-0.3,0-0.6,0-1,0C158.4,205.1,158.6,205.6,159.5,205.5z"/>
<path class="st0" d="M187.2,205.2c0,1.3,0.1,2.7-0.3,3.6c2.1-0.6,3.2-2.2,4.8-3.3C190,205.6,188.5,205.5,187.2,205.2z"/>
<path class="st0" d="M160.1,199.8c1.4-0.1,2.2-0.7,2.2-2.1c-0.6-0.2-1.2-0.5-1.9-0.6C160.4,198,160.6,199.3,160.1,199.8z"/>
<path class="st0" d="M162.7,204.3c0,0.9,0,1.8,0,2.7c1-0.6,2.6-0.7,2.5-2.4C164,204.8,163.8,204.1,162.7,204.3z"/>
<path class="st0" d="M165.2,183.2c0.2,1.1-0.4,3,0.3,3.6c0.6-1.3,2.3-1.6,2.9-3C167,183.8,166.7,183,165.2,183.2z"/>
<path class="st0" d="M162.7,201.3c0,0.4,0,0.8,0,1.2c0.9-0.2,3,0.6,2.5-0.9C165,200.9,163.4,201.5,162.7,201.3z"/>
<path class="st0" d="M160.7,195.8c0.4,0.3,0.9,0.4,1.6,0.3C162.7,194.5,160.9,194.9,160.7,195.8z"/>
<path class="st0" d="M171.6,219.7c0-0.8,0-1.6,0-2.4c-0.9-0.1-1.3-0.6-2.2-0.6C169.7,218,170,219.4,171.6,219.7z"/>
<path class="st0" d="M170,207c0.4,0.9,0.7,2,1.9,2.1C172.6,206.4,171,204.1,170,207z"/>
<path class="st0" d="M163.6,220.9c-0.1,0.9,0,1.6,1,1.5C164.7,221.5,164.2,221.2,163.6,220.9z"/>
<path class="st0" d="M193.6,190.7c0.3-0.3,0.9-2.6-0.3-2.4c-0.3,1-1.7,1-1.9,2.1C192.4,190.2,192.8,190.6,193.6,190.7z"/>
<path class="st0" d="M207.5,169.9c3.6-0.1,2.6-4.2,0-4.5C207.5,166.9,207.5,168.4,207.5,169.9z"/>
<path class="st0" d="M207.5,163.2c1,1,1.7,2.2,3.2,2.7c0.4-1.2,0.8-2.2,1.3-3.3C210.5,160.7,207.7,159.1,207.5,163.2z"/>
<path class="st0" d="M198.2,191c2.6,1.2,6.7,2.5,9.2,2.7C204.5,192.4,200.4,185.2,198.2,191z"/>
<path class="st0" d="M190.4,192.5c-0.4,0-0.4-0.4-1-0.3c0.4,1.3-1,0.8-1.9,0.9c0.1,1.1-0.1,2-0.3,2.7
	C188.6,195.1,190,194.3,190.4,192.5z"/>
<path class="st0" d="M215.8,159.3c1.9,0.4,3.3,1.3,5.4,1.5c-0.3-1.2,0.2-2.4,0-4.2C217.9,155.9,216,156.5,215.8,159.3z"/>
<path class="st0" d="M220.6,149.1c-1.1,1.3-2.8,3.6-2.2,5.4c0.7-0.9,1.7,0.4,2.9,0C220.8,152.8,222,149.7,220.6,149.1z"/>
<path class="st0" d="M191.3,184.7c-1.9-0.2-3.2-1-5.1-1.2c0.4,1.7,2.1,2.3,3.5,3C190.4,186,191.2,185.7,191.3,184.7z"/>
<path class="st0" d="M210.7,157.8c1.4-0.1,1.7,0.8,3.2,0.6c-0.2-1.1,0.7-1.2,0.6-2.1C212.5,156.1,211.3,156.7,210.7,157.8z"/>
<path class="st0" d="M188.5,187.7c-0.3-1.2-1.4-1.5-2.2-2.1C185.5,187,187.3,188.3,188.5,187.7z"/>
<path class="st0" d="M194.2,175c0.9,2.2,3.6,2.8,7,2.7C199.8,176,196.4,176,194.2,175z"/>
<path class="st0" d="M194.8,189.5c0.6-1.2,2.2-1.5,2.5-3c-1.5-0.7-2.1,0.7-3.2,1.2C194.5,188.2,194.3,189.2,194.8,189.5z"/>
<path class="st0" d="M188.4,188.3c1.6,0.4,4.4,2.2,5.1,0c-1.4-1.2-2.8-2.4-3.5-4.2c-0.5,0-1.1,0-1.6,0
	C188.4,185.5,188.4,186.9,188.4,188.3z"/>
<path class="st0" d="M193.9,180.1c-3.8,0.4-7.4-0.8-10.5,0c3.6,0.9,7.2,1.9,10.5,3C193.9,182.2,193.9,181.1,193.9,180.1z"/>
<path class="st0" d="M218,174.1c-1.4,1.6-3.4,2.7-4.8,4.2c1.5,0.5,3.1,0.9,4.5,1.5c1-1.1,3.2-1,3.8-2.4
	C220.9,175.8,219.1,175.3,218,174.1z"/>
<path class="st0" d="M196,191.9c-1.4,1.4-3.4,2.2-4.5,3.9c3.8-0.2,7,0.2,10.5,0.3C201,193.9,198.8,192.6,196,191.9z"/>
<path class="st0" d="M197.1,180.4c-1.1,0.1-1.8-0.1-2.5-0.3c0,0.8,0,1.6,0,2.4C195.7,182.2,196.5,181.4,197.1,180.4z"/>
<path class="st0" d="M194.7,185.6c0.6,0.6,0,0.8,0,1.5c1.6-0.3,2.3-1.4,3.2-2.4c-1.5-0.3-6-1.2-5.1,0.6c0.3-0.5,0.8-0.7,1.3-0.3
	c-0.2,0.4-0.5,0.8-0.6,1.2C194.3,186.4,194.1,185.6,194.7,185.6z"/>
<path class="st0" d="M219,167.5c1.1,0.2,0.8-1.1,1.9-0.9c0-1,0-2,0-3c-1.9-0.7-4.7-2-6.4-1.8C215.3,164.3,217.8,165.3,219,167.5z"/>
<path class="st0" d="M208.8,175.9c2-1.2,3.7-2.5,5.1-4.2C210.2,169.6,209.8,173.8,208.8,175.9z"/>
<path class="st0" d="M217.4,169.3c-1-1.9-2.3-3.5-4.1-4.5c0,1.3-0.9,1.8-1,3c1.7,0.5,2.5,1.9,4.1,2.4
	C216.6,169.8,216.9,169.5,217.4,169.3z"/>
<path class="st0" d="M207.5,171.1c0.2,1-0.2,1.4-0.3,2.1C208.1,173.2,209,170.9,207.5,171.1z"/>
<path class="st0" d="M204,164.5c-3.4,0.7-5.2,2.9-7,5.1c2.3,0,4.7,0,7,0C204,167.9,204,166.2,204,164.5z"/>
<path class="st0" d="M201.4,182c1.6-0.9,3-2,2.5-4.8c-3.6-1.6-8-2.5-11.8-3.9C194.7,176.7,198.1,179.3,201.4,182z"/>
<path class="st0" d="M193.5,172.3c3.6,0.9,6.7,2.3,10.5,3c0-1.4,0-2.8,0-4.2C200.5,171,194.5,169.6,193.5,172.3z"/>
<path class="st0" d="M215.5,180.5c-3.1-1.8-5.9-0.1-7.3,2.1C211.6,182.8,213.8,181.9,215.5,180.5z"/>
<path class="st0" d="M221.5,179.9c-0.6-0.1-0.7,0.3-1.3,0.3c-0.3,0.9,0.7,0.5,1.3,0.6C221.5,180.5,221.5,180.2,221.5,179.9z"/>
<path class="st0" d="M221.5,185.3c-3.6,0.1-10.3-1.7-12.1,0.6c3.4,0.6,6.3,1.7,9.2,2.7C219.6,187.5,221.4,187.2,221.5,185.3z"/>
<path class="st0" d="M215.1,182.9c2.4-0.4,4.5,0.8,6.4,0C220.2,180.9,216.6,181.2,215.1,182.9z"/>
</svg>
