<svg width="99" height="25" viewBox="0 0 99 25" fill="none" xmlns="http://www.w3.org/2000/svg">
<path d="M28.9821 24.2152C27.6793 24.2152 26.5251 23.9753 25.5193 23.4959C24.5136 23.0165 23.7306 22.3657 23.1709 21.5434C22.6106 20.7212 22.3311 19.7967 22.3311 18.7688C22.3311 17.1018 23.0106 15.7946 24.3707 14.8464C25.7302 13.8994 27.5533 13.2312 29.8387 12.8429L33.4731 12.2606V12.2263C33.4731 11.6328 33.4219 11.1984 33.3189 10.9247C33.216 10.6504 32.9246 10.5139 32.4448 10.5139C32.1242 10.5139 31.8671 10.5774 31.6736 10.7021C31.479 10.828 31.2675 11.0051 31.0391 11.2332C30.7871 11.485 30.4676 11.6104 30.0795 11.6104H24.2514C24.0225 11.6104 23.8341 11.5418 23.6856 11.4047C23.5365 11.2675 23.4741 11.0849 23.4971 10.8567C23.5196 10.4234 23.703 9.91476 24.0456 9.33251C24.3881 8.75026 24.9197 8.18487 25.6397 7.63691C26.3597 7.08894 27.2856 6.63259 28.4167 6.26672C29.5479 5.90141 30.9137 5.71875 32.5134 5.71875C34.1132 5.71875 35.4216 5.88454 36.5758 6.21557C37.7295 6.5466 38.6841 7.02656 39.4384 7.65433C40.1927 8.28267 40.7586 9.05881 41.1354 9.98332C41.5123 10.9084 41.7013 11.9532 41.7013 13.1177V22.9485C41.7013 23.2002 41.6096 23.4166 41.4268 23.5993C41.2434 23.7825 41.0269 23.8735 40.7754 23.8735H34.7758C34.5238 23.8735 34.3072 23.7825 34.1244 23.5993C33.9411 23.4166 33.8499 23.2002 33.8499 22.9485V21.9891C33.5299 22.446 33.1243 22.84 32.6327 23.171C32.1411 23.502 31.587 23.7589 30.9699 23.9415C30.3529 24.1242 29.6902 24.2152 28.9821 24.2152ZM31.3479 19.1453C31.8047 19.1453 32.199 19.0543 32.5309 18.871C32.8622 18.6884 33.1192 18.3973 33.3021 17.9977C33.4849 17.5981 33.5766 17.1018 33.5766 16.5078V16.4735L31.5538 16.9186C30.9592 17.0557 30.5593 17.2389 30.354 17.4666C30.1481 17.6953 30.0452 17.9347 30.0452 18.1859C30.0452 18.3461 30.0964 18.5001 30.1993 18.6485C30.3022 18.7974 30.4507 18.9171 30.6448 19.0082C30.8389 19.0998 31.074 19.1453 31.3479 19.1453Z" fill="white"/>
<path d="M44.3976 23.8735C44.1456 23.8735 43.929 23.7825 43.7462 23.5993C43.5628 23.4166 43.4717 23.2002 43.4717 22.9485V6.9861C43.4717 6.73488 43.5628 6.5185 43.7462 6.33528C43.929 6.15263 44.1456 6.06102 44.3976 6.06102H50.3972C50.6486 6.06102 50.8652 6.15263 51.0486 6.33528C51.2314 6.5185 51.3231 6.73488 51.3231 6.9861V8.11631C51.894 7.45425 52.6826 6.88887 53.6884 6.42071C54.6936 5.95311 55.8022 5.71875 57.0139 5.71875C58.2255 5.71875 59.265 5.99301 60.2707 6.54098C61.2759 7.08894 62.0932 7.93422 62.7221 9.07567C63.3504 10.2177 63.6649 11.6907 63.6649 13.4942V22.9485C63.6649 23.2002 63.5732 23.4166 63.3904 23.5993C63.207 23.7825 62.9904 23.8735 62.739 23.8735H56.1909C55.9389 23.8735 55.7224 23.7825 55.5396 23.5993C55.3562 23.4166 55.2651 23.2002 55.2651 22.9485V13.7342C55.2651 13.1177 55.116 12.6501 54.8196 12.3297C54.522 12.01 54.0996 11.8503 53.5511 11.8503C53.0027 11.8503 52.5797 12.0105 52.2827 12.3297C51.9851 12.6501 51.8372 13.1177 51.8372 13.7342V22.9485C51.8372 23.2002 51.7455 23.4166 51.5627 23.5993C51.3793 23.7825 51.1627 23.8735 50.9113 23.8735H44.3976Z" fill="white"/>
<path d="M76.6858 11.9998C78.3058 11.9998 79.6187 10.6875 79.6187 9.06942V9.03682C79.6187 7.41822 78.3053 6.10647 76.6858 6.10647H73.2489V3.51895C73.2489 1.60585 71.6964 0.0546875 69.7817 0.0546875H66.6531C65.9814 0.0546875 65.4375 0.598718 65.4375 1.2692V18.0088C65.4375 21.2421 68.0604 23.8628 71.2965 23.8628H73.6579C76.4929 23.8628 78.7896 21.558 78.7721 18.7209C78.7682 18.0628 78.2153 17.5379 77.5566 17.5379H74.7581C73.9245 17.5379 73.2489 16.8629 73.2489 16.03V11.9998H76.6858Z" fill="white"/>
<path d="M88.9878 5.66406C83.8966 5.66406 79.7695 9.78757 79.7695 14.8744C79.7695 19.9612 83.8966 24.0847 88.9878 24.0847C94.079 24.0847 98.206 19.9612 98.206 14.8744C98.206 9.78757 94.079 5.66406 88.9878 5.66406ZM90.5397 16.4036C90.4936 17.2034 90.3907 17.7912 90.2315 18.1678C90.0712 18.5443 89.66 18.7332 88.9973 18.7332C88.3347 18.7332 87.9517 18.5449 87.7801 18.1678C87.6085 17.7912 87.5 17.2034 87.4544 16.4036C87.4313 16.0614 87.4201 15.5814 87.4201 14.9649C87.4201 14.3483 87.4313 13.8689 87.4544 13.5261C87.5 12.7724 87.6085 12.1958 87.7801 11.7962C87.9517 11.3972 88.3572 11.1971 88.9973 11.1971C89.6375 11.1971 90.0712 11.3972 90.2315 11.7962C90.3912 12.1958 90.4942 12.7724 90.5397 13.5261C90.5622 13.8684 90.574 14.3483 90.574 14.9649C90.574 15.5814 90.5622 16.0608 90.5397 16.4036Z" fill="white"/>
<path d="M11.5476 6.74531H10.5514C12.3339 5.99839 13.5861 4.23928 13.5861 2.18737V1.28252C13.5861 0.57438 13.0112 0 12.3024 0H2.98406C1.33594 0 0 1.33479 0 2.98149V5.14076C0 6.23837 0.890437 7.12748 1.98844 7.12748H8.64056C8.85825 7.12748 9.07031 7.10893 9.28069 7.0814C8.892 7.37926 8.64056 7.8463 8.64056 8.37347V21.6674C8.64056 22.8605 9.60863 23.8278 10.8028 23.8278H15.192C16.3862 23.8278 17.3542 22.8605 17.3542 21.6674V12.5464C17.3542 9.34182 14.7544 6.74419 11.547 6.74419L11.5476 6.74531Z" fill="white"/>
<path d="M16.9794 7.04852C18.9167 7.04852 20.4872 5.4794 20.4872 3.54379C20.4872 1.60818 18.9167 0.0390625 16.9794 0.0390625C15.0422 0.0390625 13.4717 1.60818 13.4717 3.54379C13.4717 5.4794 15.0422 7.04852 16.9794 7.04852Z" fill="#F79494"/>
<path d="M20.4814 6.76035C20.4814 7.00483 20.6974 7.19254 20.9399 7.15995C22.6904 6.92446 24.0404 5.42669 24.0404 3.61307C24.0404 1.79944 22.6904 0.301671 20.9399 0.0661863C20.6974 0.0335894 20.4814 0.221304 20.4814 0.46578V6.76035Z" fill="#797EF6"/>
</svg>
