<svg xmlns="http://www.w3.org/2000/svg" viewBox="62 88 68 66">
  <g fill="#fee82f" fill-rule="evenodd" clip-rule="evenodd">
    <path d="M82.643 110.995c-.295-.293-.58-.584-.863-.876.395-.485.8-.965 1.202-1.438l1.892-2.312c.367-.449.276-1.077-.171-1.444-.448-.366-1.132-.27-1.499.178l-1.819 2.221c-.338.396-.673.8-1.007 1.204-.562-.72-1.042-1.473-1.352-2.322a1.047 1.047 0 0 0-1.344-.624 1.046 1.046 0 0 0-.626 1.343c.462 1.265 1.184 2.328 2.001 3.304-.804 1.117-1.516 2.302-2.001 3.627a1.048 1.048 0 0 0 1.968.721c.356-.971.889-1.88 1.49-2.758.216.222.432.445.649.66l2.066 2.197c.397.422 1.105.492 1.525.097.422-.396.488-1.009.092-1.431l-2.203-2.347zM109.777 108.956a27.75 27.75 0 0 1-3.725-2.466 85.288 85.288 0 0 1 1.832-3.099 1.047 1.047 0 1 0-1.781-1.101 91.634 91.634 0 0 0-1.684 2.829 53.503 53.503 0 0 1-2.672-2.595 1.048 1.048 0 1 0-1.503 1.461c1.09 1.12 2.105 2.113 3.145 3.022-.809 1.567-1.51 3.146-1.949 4.638a1.048 1.048 0 1 0 2.01.592c.359-1.217.938-2.542 1.605-3.866a29.648 29.648 0 0 0 3.707 2.417c.506.28 1.143.098 1.424-.407a1.05 1.05 0 0 0-.409-1.425zM120.602 118.957c.547.189 1.045-.126 1.236-.673.191-.546-.191-1.172-.738-1.363l-1.98-.695c-1.033-.417-2.1-.849-3.324-.984a1.054 1.054 0 0 0-1.158.928 1.052 1.052 0 0 0 .928 1.157c.377.04.746.131 1.113.24-.115 5.658-2 11.662-5.232 16.546a23.16 23.16 0 0 1-3.945 4.541c-1.098.973-1.676.979-2.828.988l-2.432.213c-1.045.21-1.857.649-2.576 1.037-.777.42-1.449.781-2.324.827-2.142.113-4.886-.505-6.382-1.44-1.386-.862-2.588-2.16-3.751-3.416l-1.183-1.256c-1.679-1.716-3.442-1.925-5.309-2.145l-1.85-.269c-2.633-.504-3.382-2.481-4.387-5.667l-.711-1.994c.558-.184 1.073-.314 1.458-.344a1.049 1.049 0 0 0-.16-2.092c-1.912.148-5 1.583-6.377 2.719a1.048 1.048 0 0 0 1.334 1.619c.438-.362 1.093-.753 1.808-1.106l.649 1.828c.936 2.967 1.996 6.33 5.99 7.099l2 .29c1.681.198 2.895.341 4.056 1.527l1.144 1.213c1.256 1.357 2.556 2.763 4.18 3.775 2.188 1.363 5.473 1.865 7.6 1.753 1.348-.069 2.338-.606 3.213-1.078.643-.348 1.252-.677 1.988-.824l2.043-.172c1.291-.012 2.512-.023 4.195-1.518 1.279-1.132 2.395-2.422 3.414-3.781l1.354 1.139c1.814 1.644 3.871 3.506 5.777 2.874 1.109-.363 1.826-1.439 2.191-3.282.74-3.724-1.193-6.426-5.404-7.679 1.48-3.601 2.355-7.443 2.523-11.18l1.857.645zm-1.032 17.804c-.227 1.137-.559 1.625-.795 1.703-.746.246-2.676-1.5-3.715-2.44l-1.543-1.288c.148-.234.291-.475.434-.713 1.008.441 1.756 1.334 2.523 2.306a1.05 1.05 0 0 0 1.645-1.302c-.828-1.045-1.773-2.174-3.15-2.839.135-.258.273-.515.4-.778 4.983 1.361 4.399 4.357 4.201 5.351z"/>
    <path d="M94.056 90.065c-1.081.03-26.453.973-27.757 19.906a1.4 1.4 0 0 1 .022-.184c-.477 2.577-1.19 5.757-1.511 6.396a1.773 1.773 0 0 0-.102.256c-.285.944-6.816 23.238 7.971 31.846.295.171 29.031 16.301 50.338-4.796.059-.058.113-.12.162-.186.143-.194 14.197-19.565 1.049-37.887C111.459 87.625 95.42 89.84 94.056 90.065zm-24.564 20.308c.011-.06.019-.121.022-.183 1.124-16.293 24.45-16.899 24.686-16.904a1.79 1.79 0 0 0 .252-.024c.62-.107 15.329-2.444 27.157 14.035 3.787 5.277 5.084 10.616 5.084 15.455 0 9.909-5.402 17.657-6.027 18.519-19.535 19.23-45.285 4.846-46.373 4.223-12.575-7.322-6.559-27.916-6.497-28.125a1.677 1.677 0 0 1-.102.257c.671-1.341 1.546-5.89 1.798-7.253z"/>
  </g>
</svg>
