
SVGOMG
Powered by SVGO v3.0.0


Open SVG
Paste markup

Demo
Contribute



5.76k → 1.26k 21.82%
<svg xmlns="http://www.w3.org/2000/svg" xmlns:xlink="http://www.w3.org/1999/xlink" width="700pt" height="700pt" viewBox="0 0 700 700"><path d="m648 342-3-5-8-8-9-6-10-4-33-12-51-13-13-4c-7-2-13-6-19-10l-11-6-12-5 12-3-4-9-5-7 1-3-5-7-6-7c-5-5-11-9-18-12l-21-9-24-9c-6-4-13-8-19-10l-15-2c-4 0-8 0-12-2l-8-6-7-7-10-8-8-7-59-45-8-6-6-6-4-8-8-13-23-38c-5-6-9-12-15-17l-7-6-10-5-11-4c-9-2-19-2-28 1-8 3-15 6-21 10l-5 3h-8l-9 1-23 7c-7 2-14 5-21 10-5 4-10 9-12 15l11 2a1673 1673 0 0 0 49 6h2l4 4 5 9 3 12c1 10-2 19 0 29l2-6-1 3h1l2-7c1 12 0 24-2 36v-1 2c-1 7-3 13-2 20l2-4v5l2 4 1-3v8l1-2 1 1 1-2v7l2 2 2 14-1 5a52 52 0 0 0 15 40l6 6c4 3 8 5 10 9l5 8 8 11 7 10 13 17 10 23c5 10 10 21 13 32 5 17 8 35 11 53l2 13 1 8-2 5-23 23-7 4c-2 2-2 5-4 6-5 2-11 2-16 2l-10-1c-4-1-8-5-13-5s-10 4-11 10c3-4 7-7 12-6 2 0 5 2 3 4-3 4-6 9-5 14l7-9 3 5c3 0 7-2 10-1h9c2 0 4 0 6 2l2 1 10-1c3 0 5-4 9-3 8 1 17 2 26 1 2-2 3-5 3-8l2-2h7c3 3 2 8 6 9l-1-8c-2-4-6-7-9-7-6-1-11 3-16 4-4 1-9 3-12 0-1-4 1-7 3-9 7-9 16-18 25-26l2-2 5-9 3-9c2-10 0-20-1-30l5 6v-2l1 1 1 3h1v-2l1 2h1l-1-3c1 1 1 3 3 3l-1-2v-1l2 2-3-8-1-1 2 1-1-3h1l2 3h1l-1-2h1l2 2v-1l8 9h3v-3l1 2v-3l-1-1 2 1-1-2h1c0-3-2-6-4-9h2l-1-1h1l3 4-2-5v-1l2 2-1-3 2 2a182 182 0 0 1 1 0v-1l-1-3 3 2-4-13h3l5 3 5 3 3 4v4l-2 6c0 1 2 2 1 3v2l1 1c0 2-2 3-1 5h1l-1 6 3 14v14l-5 21-4 15-4 11c-2 6-3 13-9 17l-16 11-7 2c-4 1-7 4-9 7l-2 8 5-5c1-3 3-4 6-4 1 0 2 4 4 3 6 1 8-5 12-7l-6 13-3 3c-4 5-6 11-6 17l1 8 1-4c1-6 1-10 6-15 3 1 6 3 8 1 5-3 3-9 8-11 4-3 6-8 9-12 5 2 10 7 17 6l2-6c5-1 12 1 14 6 1 3 1 8 5 10 0-9-3-19-12-22-4-2-8 1-12 1-3-3-7-6-6-10 0-8-2-17 1-25l6-13a263 263 0 0 0 4-13h1l2-8 4-5 7-12 4-11 1 2h1l-2-26 1 1 1-2 2 2 1-1-3-3 2 1h1v-1l-2-1 3 1 1-1-7-5-1-2 2 1 1-1-1-1h1v-1c-1-1-2-1-2-3l4-1h7l9 4 6 3 6 3c2 1 3 2 4 1 2 0 3-1 3-2l3-4 9-5 14-1 26 5 14 4 12 3c8 2 16 5 25 5l13-2 14 5c4 1 6 4 10 6l5 1 1-1v-2l14 7 11 7 3-4c4 3 8 7 13 9 3 2 7 3 11 2l2-4 4 3c3 2 6 3 10 3 2 0 3 0 4-2 2-2 2-4 1-6l10 6c2-1 5-2 7-1l7 2 7 2 1-1v-4l1-1 4 1h5l-1-3-6-5-10-5-32-17-9-5-11-6-4-3c-22-16-43-32-65-46a775 775 0 0 1 100 23l25 6 2-1-1-3h1l13 4 11 2v-5z"/><use xlink:href="#y" x="38.6" y="565"/><use xlink:href="#c" x="39.9" y="565"/><use xlink:href="#a" x="40.7" y="565"/><use xlink:href="#l" x="41.8" y="565"/><use xlink:href="#b" x="43" y="565"/><use xlink:href="#a" x="43.8" y="565"/><use xlink:href="#k" x="44.9" y="565"/><use xlink:href="#j" x="46.7" y="565"/><use xlink:href="#i" x="47.9" y="565"/><use xlink:href="#h" x="49.6" y="565"/><use xlink:href="#x" x="50.8" y="565"/><use xlink:href="#g" x="51.4" y="565"/><use xlink:href="#a" x="52.6" y="565"/><use xlink:href="#b" x="53.8" y="565"/><use xlink:href="#f" x="54.6" y="565"/><use xlink:href="#w" x="55.1" y="565"/><use xlink:href="#v" x="56.9" y="565"/><use xlink:href="#a" x="58.3" y="565"/><use xlink:href="#u" x="59.4" y="565"/><use xlink:href="#f" x="60.4" y="565"/><use xlink:href="#t" x="61" y="565"/><use xlink:href="#e" x="62.2" y="565"/><use xlink:href="#s" x="38.6" y="566.7"/><use xlink:href="#c" x="39.4" y="566.7"/><use xlink:href="#d" x="40.2" y="566.7"/><use xlink:href="#r" x="41.3" y="566.7"/><use xlink:href="#b" x="43.7" y="566.7"/><use xlink:href="#q" x="44.5" y="566.7"/><use xlink:href="#a" x="45.7" y="566.7"/><use xlink:href="#p" x="47.4" y="566.7"/><use xlink:href="#d" x="48.8" y="566.7"/><use xlink:href="#g" x="50" y="566.7"/><use xlink:href="#e" x="51.1" y="566.7"/><use xlink:href="#o" x="52.9" y="566.7"/><use xlink:href="#c" x="54.2" y="566.7"/><use xlink:href="#d" x="55" y="566.7"/><use xlink:href="#n" x="56.1" y="566.7"/><use xlink:href="#a" x="56.7" y="566.7"/><use xlink:href="#m" x="57.8" y="566.7"/><use xlink:href="#b" x="58.8" y="566.7"/></svg>